<mxfile host="Electron" agent="Mozilla/5.0 (Windows NT 10.0; Win64; x64) AppleWebKit/537.36 (KHTML, like Gecko) draw.io/24.7.17 Chrome/128.0.6613.36 Electron/32.0.1 Safari/537.36" version="24.7.17">
  <diagram name="Page-1" id="-hfQYTGBIGC2IBwUTKeI">
    <mxGraphModel dx="1603" dy="702" grid="1" gridSize="10" guides="0" tooltips="1" connect="1" arrows="0" fold="1" page="0" pageScale="1" pageWidth="827" pageHeight="1169" math="0" shadow="0">
      <root>
        <mxCell id="0" />
        <mxCell id="1" value="Hexagon" style="locked=1;" parent="0" />
        <mxCell id="qZ0eZMEyJfM4uQIMgLbZ-5" value="" style="group;movable=1;resizable=1;rotatable=1;deletable=1;editable=1;locked=0;connectable=1;cloneable=0;" parent="1" vertex="1" connectable="0">
          <mxGeometry x="-140" y="240" width="1520" height="560" as="geometry" />
        </mxCell>
        <mxCell id="qZ0eZMEyJfM4uQIMgLbZ-3" value="" style="endArrow=block;html=1;rounded=0;strokeWidth=2;endFill=1;entryX=0;entryY=0.5;entryDx=0;entryDy=0;movable=1;cloneable=0;deletable=1;editable=1;resizable=1;rotatable=1;locked=0;connectable=1;exitX=1;exitY=0.5;exitDx=0;exitDy=0;" parent="qZ0eZMEyJfM4uQIMgLbZ-5" source="qZ0eZMEyJfM4uQIMgLbZ-2" target="qZ0eZMEyJfM4uQIMgLbZ-1" edge="1">
          <mxGeometry width="50" height="50" relative="1" as="geometry">
            <mxPoint x="250" y="270" as="sourcePoint" />
            <mxPoint x="330" y="270" as="targetPoint" />
          </mxGeometry>
        </mxCell>
        <mxCell id="WYxq5w56mi98Xdl97QRf-30" value="&lt;b&gt;External System Adapters&lt;/b&gt;" style="html=1;whiteSpace=wrap;rounded=1;horizontal=1;verticalAlign=top;movable=1;cloneable=0;deletable=1;connectable=1;allowArrows=0;resizable=1;rotatable=1;recursiveResize=0;expand=0;container=1;collapsible=0;dropTarget=1;editable=1;locked=0;" parent="qZ0eZMEyJfM4uQIMgLbZ-5" vertex="1">
          <mxGeometry x="1260" y="320" width="260" height="200" as="geometry" />
        </mxCell>
        <mxCell id="WYxq5w56mi98Xdl97QRf-29" value="&lt;b&gt;Persistence Adapter&lt;/b&gt;" style="html=1;whiteSpace=wrap;rounded=1;horizontal=1;verticalAlign=top;movable=1;cloneable=0;deletable=1;connectable=1;allowArrows=0;resizable=1;rotatable=1;recursiveResize=0;expand=0;container=1;collapsible=0;dropTarget=1;editable=1;locked=0;" parent="qZ0eZMEyJfM4uQIMgLbZ-5" vertex="1">
          <mxGeometry x="1260" y="40" width="260" height="200" as="geometry" />
        </mxCell>
        <mxCell id="WYxq5w56mi98Xdl97QRf-25" value="&lt;b&gt;Web Adapters&lt;/b&gt;" style="html=1;whiteSpace=wrap;rounded=1;horizontal=1;verticalAlign=top;movable=1;cloneable=0;deletable=1;connectable=1;allowArrows=0;resizable=1;rotatable=1;container=1;collapsible=0;recursiveResize=0;expand=0;dropTarget=1;editable=1;locked=0;" parent="qZ0eZMEyJfM4uQIMgLbZ-5" vertex="1">
          <mxGeometry y="40" width="260" height="200" as="geometry" />
        </mxCell>
        <mxCell id="jC72QDiSUMgHh-S-kuxz-1" value="" style="shape=hexagon;perimeter=hexagonPerimeter2;whiteSpace=wrap;html=1;fixedSize=1;size=150;strokeWidth=2;fillColor=none;recursiveResize=0;connectable=1;editable=1;movable=1;resizable=1;rotatable=1;deletable=1;locked=0;allowArrows=0;cloneable=0;pointerEvents=0;expand=0;" parent="qZ0eZMEyJfM4uQIMgLbZ-5" vertex="1">
          <mxGeometry x="340" width="840" height="560" as="geometry" />
        </mxCell>
        <mxCell id="WYxq5w56mi98Xdl97QRf-21" value="" style="group;movable=1;cloneable=0;deletable=1;editable=1;resizable=1;rotatable=1;locked=0;connectable=1;" parent="qZ0eZMEyJfM4uQIMgLbZ-5" vertex="1" connectable="0">
          <mxGeometry x="500" y="380" width="80" height="80" as="geometry" />
        </mxCell>
        <mxCell id="WYxq5w56mi98Xdl97QRf-18" value="Application" style="text;html=1;align=center;verticalAlign=bottom;whiteSpace=wrap;rounded=0;horizontal=0;movable=1;cloneable=0;deletable=1;editable=1;resizable=1;rotatable=1;locked=0;connectable=1;" parent="WYxq5w56mi98Xdl97QRf-21" vertex="1">
          <mxGeometry width="40" height="80" as="geometry" />
        </mxCell>
        <mxCell id="WYxq5w56mi98Xdl97QRf-19" value="Domain" style="text;html=1;align=center;verticalAlign=top;whiteSpace=wrap;rounded=0;horizontal=0;movable=1;cloneable=0;deletable=1;editable=1;resizable=1;rotatable=1;locked=0;connectable=1;" parent="WYxq5w56mi98Xdl97QRf-21" vertex="1">
          <mxGeometry x="40" width="40" height="80" as="geometry" />
        </mxCell>
        <mxCell id="WYxq5w56mi98Xdl97QRf-17" value="" style="rounded=1;whiteSpace=wrap;html=1;fillColor=none;dashed=1;container=1;collapsible=0;recursiveResize=0;movable=1;cloneable=0;deletable=1;connectable=1;allowArrows=0;dropTarget=0;resizable=1;rotatable=1;pointerEvents=0;expand=0;editable=1;locked=0;" parent="qZ0eZMEyJfM4uQIMgLbZ-5" vertex="1">
          <mxGeometry x="540" y="300" width="440" height="240" as="geometry" />
        </mxCell>
        <mxCell id="WYxq5w56mi98Xdl97QRf-14" value="&lt;b&gt;Entities&lt;/b&gt;" style="rounded=1;whiteSpace=wrap;html=1;verticalAlign=top;container=1;recursiveResize=0;autosize=0;rotatable=1;deletable=1;collapsible=0;movable=1;cloneable=0;connectable=1;allowArrows=0;resizable=1;dropTarget=1;editable=1;locked=0;" parent="WYxq5w56mi98Xdl97QRf-17" vertex="1">
          <mxGeometry x="40" y="20" width="160" height="200" as="geometry">
            <mxRectangle x="400" y="220" width="80" height="30" as="alternateBounds" />
          </mxGeometry>
        </mxCell>
        <mxCell id="WYxq5w56mi98Xdl97QRf-15" value="&lt;b&gt;Value Objects&lt;/b&gt;" style="rounded=1;whiteSpace=wrap;html=1;verticalAlign=top;container=1;recursiveResize=0;autosize=0;rotatable=1;deletable=1;collapsible=0;movable=1;cloneable=0;connectable=1;allowArrows=0;resizable=1;expand=0;dropTarget=1;editable=1;locked=0;" parent="WYxq5w56mi98Xdl97QRf-17" vertex="1">
          <mxGeometry x="240" y="20" width="160" height="200" as="geometry">
            <mxRectangle x="400" y="220" width="80" height="30" as="alternateBounds" />
          </mxGeometry>
        </mxCell>
        <mxCell id="WYxq5w56mi98Xdl97QRf-28" value="&lt;b&gt;Output Ports&lt;/b&gt;" style="html=1;whiteSpace=wrap;rounded=1;horizontal=1;verticalAlign=top;movable=1;cloneable=0;deletable=1;connectable=1;allowArrows=0;resizable=1;rotatable=1;recursiveResize=0;expand=0;container=1;dropTarget=1;collapsible=0;editable=1;locked=0;" parent="qZ0eZMEyJfM4uQIMgLbZ-5" vertex="1">
          <mxGeometry x="1020" y="320" width="160" height="200" as="geometry" />
        </mxCell>
        <mxCell id="WYxq5w56mi98Xdl97QRf-27" value="&lt;b&gt;Output Ports&lt;/b&gt;" style="html=1;whiteSpace=wrap;rounded=1;horizontal=1;verticalAlign=top;movable=1;cloneable=0;deletable=1;connectable=1;allowArrows=0;resizable=1;rotatable=1;dropTarget=1;expand=0;recursiveResize=0;container=1;collapsible=0;editable=1;locked=0;" parent="qZ0eZMEyJfM4uQIMgLbZ-5" vertex="1">
          <mxGeometry x="1020" y="40" width="160" height="200" as="geometry" />
        </mxCell>
        <mxCell id="WYxq5w56mi98Xdl97QRf-26" value="&lt;b&gt;Input Ports&lt;/b&gt;" style="html=1;whiteSpace=wrap;rounded=1;horizontal=1;verticalAlign=top;movable=1;cloneable=0;deletable=1;connectable=1;allowArrows=0;resizable=1;rotatable=1;container=1;collapsible=0;recursiveResize=0;expand=0;dropTarget=1;editable=1;locked=0;" parent="qZ0eZMEyJfM4uQIMgLbZ-5" vertex="1">
          <mxGeometry x="340" y="40" width="160" height="200" as="geometry" />
        </mxCell>
        <mxCell id="WYxq5w56mi98Xdl97QRf-33" value="" style="endArrow=block;html=1;rounded=0;strokeWidth=2;endFill=1;exitX=1;exitY=0.5;exitDx=0;exitDy=0;entryX=0;entryY=0.5;entryDx=0;entryDy=0;movable=1;cloneable=0;deletable=1;editable=1;resizable=1;rotatable=1;locked=0;connectable=1;" parent="qZ0eZMEyJfM4uQIMgLbZ-5" source="WYxq5w56mi98Xdl97QRf-25" target="WYxq5w56mi98Xdl97QRf-26" edge="1">
          <mxGeometry width="50" height="50" relative="1" as="geometry">
            <mxPoint x="200" y="420" as="sourcePoint" />
            <mxPoint x="230" y="360" as="targetPoint" />
          </mxGeometry>
        </mxCell>
        <mxCell id="WYxq5w56mi98Xdl97QRf-34" value="" style="endArrow=block;html=1;rounded=0;strokeWidth=2;endFill=1;entryX=0;entryY=0.5;entryDx=0;entryDy=0;exitX=1;exitY=0.5;exitDx=0;exitDy=0;movable=1;cloneable=0;deletable=1;editable=1;resizable=1;rotatable=1;locked=0;connectable=1;" parent="qZ0eZMEyJfM4uQIMgLbZ-5" source="jC72QDiSUMgHh-S-kuxz-7" target="WYxq5w56mi98Xdl97QRf-27" edge="1">
          <mxGeometry width="50" height="50" relative="1" as="geometry">
            <mxPoint x="1090" y="-50" as="sourcePoint" />
            <mxPoint x="1170" y="-50" as="targetPoint" />
          </mxGeometry>
        </mxCell>
        <mxCell id="WYxq5w56mi98Xdl97QRf-35" value="" style="endArrow=block;html=1;rounded=0;strokeWidth=2;endFill=1;entryX=-0.016;entryY=0.205;entryDx=0;entryDy=0;exitX=1;exitY=0.75;exitDx=0;exitDy=0;entryPerimeter=0;movable=1;cloneable=0;deletable=1;editable=1;resizable=1;rotatable=1;locked=0;connectable=1;" parent="qZ0eZMEyJfM4uQIMgLbZ-5" source="jC72QDiSUMgHh-S-kuxz-7" target="WYxq5w56mi98Xdl97QRf-28" edge="1">
          <mxGeometry width="50" height="50" relative="1" as="geometry">
            <mxPoint x="1140" y="-10" as="sourcePoint" />
            <mxPoint x="1030" y="150" as="targetPoint" />
          </mxGeometry>
        </mxCell>
        <mxCell id="jC72QDiSUMgHh-S-kuxz-7" value="&lt;b&gt;Services&lt;/b&gt;" style="rounded=1;whiteSpace=wrap;html=1;verticalAlign=top;container=1;recursiveResize=0;autosize=0;rotatable=1;deletable=1;collapsible=0;dropTarget=1;movable=1;cloneable=0;connectable=1;allowArrows=0;resizable=1;editable=1;locked=0;expand=0;" parent="qZ0eZMEyJfM4uQIMgLbZ-5" vertex="1">
          <mxGeometry x="580" y="40" width="360" height="200" as="geometry">
            <mxRectangle x="400" y="220" width="80" height="30" as="alternateBounds" />
          </mxGeometry>
        </mxCell>
        <mxCell id="WYxq5w56mi98Xdl97QRf-37" value="" style="endArrow=block;html=1;rounded=0;strokeWidth=2;endFill=1;movable=1;cloneable=0;deletable=1;editable=1;resizable=1;rotatable=1;locked=0;connectable=1;exitX=0.5;exitY=1;exitDx=0;exitDy=0;entryX=0.5;entryY=0;entryDx=0;entryDy=0;" parent="qZ0eZMEyJfM4uQIMgLbZ-5" source="jC72QDiSUMgHh-S-kuxz-7" target="WYxq5w56mi98Xdl97QRf-17" edge="1">
          <mxGeometry width="50" height="50" relative="1" as="geometry">
            <mxPoint x="660" y="640" as="sourcePoint" />
            <mxPoint x="690" y="630" as="targetPoint" />
          </mxGeometry>
        </mxCell>
        <mxCell id="WYxq5w56mi98Xdl97QRf-39" value="" style="endArrow=block;html=1;rounded=0;strokeWidth=2;endFill=0;exitX=0;exitY=0.5;exitDx=0;exitDy=0;entryX=1;entryY=0.5;entryDx=0;entryDy=0;movable=1;cloneable=0;deletable=1;editable=1;resizable=1;rotatable=1;locked=0;connectable=1;" parent="qZ0eZMEyJfM4uQIMgLbZ-5" source="WYxq5w56mi98Xdl97QRf-29" target="WYxq5w56mi98Xdl97QRf-27" edge="1">
          <mxGeometry width="50" height="50" relative="1" as="geometry">
            <mxPoint x="1100" y="-80" as="sourcePoint" />
            <mxPoint x="1180" y="-80" as="targetPoint" />
          </mxGeometry>
        </mxCell>
        <mxCell id="WYxq5w56mi98Xdl97QRf-40" value="" style="endArrow=block;html=1;rounded=0;strokeWidth=2;endFill=0;exitX=0;exitY=0.5;exitDx=0;exitDy=0;entryX=1;entryY=0.5;entryDx=0;entryDy=0;movable=1;cloneable=0;deletable=1;editable=1;resizable=1;rotatable=1;locked=0;connectable=1;" parent="qZ0eZMEyJfM4uQIMgLbZ-5" source="WYxq5w56mi98Xdl97QRf-30" target="WYxq5w56mi98Xdl97QRf-28" edge="1">
          <mxGeometry width="50" height="50" relative="1" as="geometry">
            <mxPoint x="1250" y="440" as="sourcePoint" />
            <mxPoint x="1170" y="440" as="targetPoint" />
          </mxGeometry>
        </mxCell>
        <mxCell id="WYxq5w56mi98Xdl97QRf-41" value="" style="endArrow=block;html=1;rounded=0;strokeWidth=2;endFill=0;exitX=0;exitY=0.5;exitDx=0;exitDy=0;entryX=1;entryY=0.5;entryDx=0;entryDy=0;movable=1;cloneable=0;deletable=1;editable=1;resizable=1;rotatable=1;locked=0;connectable=1;" parent="qZ0eZMEyJfM4uQIMgLbZ-5" source="jC72QDiSUMgHh-S-kuxz-7" target="WYxq5w56mi98Xdl97QRf-26" edge="1">
          <mxGeometry width="50" height="50" relative="1" as="geometry">
            <mxPoint x="570" y="130" as="sourcePoint" />
            <mxPoint x="490" y="130" as="targetPoint" />
          </mxGeometry>
        </mxCell>
        <mxCell id="qZ0eZMEyJfM4uQIMgLbZ-1" value="&lt;b&gt;Input Ports&lt;/b&gt;" style="html=1;whiteSpace=wrap;rounded=1;horizontal=1;verticalAlign=top;movable=1;cloneable=0;deletable=1;connectable=1;allowArrows=0;resizable=1;rotatable=1;container=1;collapsible=0;recursiveResize=0;expand=0;dropTarget=1;editable=1;locked=0;" parent="qZ0eZMEyJfM4uQIMgLbZ-5" vertex="1">
          <mxGeometry x="340" y="320" width="160" height="200" as="geometry" />
        </mxCell>
        <mxCell id="qZ0eZMEyJfM4uQIMgLbZ-2" value="&lt;b&gt;External System Adapters&lt;/b&gt;" style="html=1;whiteSpace=wrap;rounded=1;horizontal=1;verticalAlign=top;movable=1;cloneable=0;deletable=1;connectable=1;allowArrows=0;resizable=1;rotatable=1;container=1;collapsible=0;recursiveResize=0;expand=0;dropTarget=1;editable=1;locked=0;" parent="qZ0eZMEyJfM4uQIMgLbZ-5" vertex="1">
          <mxGeometry y="320" width="260" height="200" as="geometry" />
        </mxCell>
        <mxCell id="qZ0eZMEyJfM4uQIMgLbZ-4" value="" style="endArrow=block;html=1;rounded=0;strokeWidth=2;endFill=0;exitX=0;exitY=0.75;exitDx=0;exitDy=0;movable=1;cloneable=0;deletable=1;editable=1;resizable=1;rotatable=1;locked=0;connectable=1;entryX=1;entryY=0.25;entryDx=0;entryDy=0;" parent="qZ0eZMEyJfM4uQIMgLbZ-5" source="jC72QDiSUMgHh-S-kuxz-7" target="qZ0eZMEyJfM4uQIMgLbZ-1" edge="1">
          <mxGeometry width="50" height="50" relative="1" as="geometry">
            <mxPoint x="590" y="150" as="sourcePoint" />
            <mxPoint x="510" y="150" as="targetPoint" />
          </mxGeometry>
        </mxCell>
        <mxCell id="qZ0eZMEyJfM4uQIMgLbZ-8" value="Classes" style="" parent="0" />
        <mxCell id="qZ0eZMEyJfM4uQIMgLbZ-9" value="«interface»&lt;br&gt;&lt;b&gt;EnsembleRepository&lt;/b&gt;" style="html=1;whiteSpace=wrap;connectable=1;allowArrows=1;expand=0;resizable=0;deletable=0;rotatable=0;snapToPoint=0;" parent="qZ0eZMEyJfM4uQIMgLbZ-8" vertex="1">
          <mxGeometry x="400" y="880" width="140" height="40" as="geometry" />
        </mxCell>
        <mxCell id="qZ0eZMEyJfM4uQIMgLbZ-10" value="«interface»&lt;br&gt;&lt;b&gt;NotifierService&lt;/b&gt;" style="html=1;whiteSpace=wrap;connectable=1;allowArrows=1;expand=0;resizable=0;deletable=0;rotatable=0;snapToPoint=0;" parent="qZ0eZMEyJfM4uQIMgLbZ-8" vertex="1">
          <mxGeometry x="600" y="1040" width="120" height="40" as="geometry" />
        </mxCell>
        <mxCell id="qZ0eZMEyJfM4uQIMgLbZ-11" value="&lt;div&gt;&lt;b style=&quot;background-color: initial;&quot;&gt;DummyNotifierService&lt;/b&gt;&lt;br&gt;&lt;/div&gt;" style="html=1;whiteSpace=wrap;connectable=1;allowArrows=1;expand=0;resizable=0;deletable=0;rotatable=0;snapToPoint=0;" parent="qZ0eZMEyJfM4uQIMgLbZ-8" vertex="1">
          <mxGeometry x="600" y="880" width="140" height="40" as="geometry" />
        </mxCell>
        <mxCell id="qZ0eZMEyJfM4uQIMgLbZ-12" value="&lt;div&gt;&lt;b&gt;MemberController&lt;/b&gt;&lt;/div&gt;" style="html=1;whiteSpace=wrap;connectable=1;allowArrows=1;expand=0;resizable=0;deletable=0;rotatable=0;snapToPoint=0;" parent="qZ0eZMEyJfM4uQIMgLbZ-8" vertex="1">
          <mxGeometry x="400" y="1040" width="120" height="40" as="geometry" />
        </mxCell>
        <mxCell id="qZ0eZMEyJfM4uQIMgLbZ-13" value="&lt;b&gt;Ensemble&lt;/b&gt;" style="html=1;whiteSpace=wrap;connectable=1;allowArrows=1;expand=0;resizable=0;deletable=0;rotatable=0;snapToPoint=0;" parent="qZ0eZMEyJfM4uQIMgLbZ-8" vertex="1">
          <mxGeometry x="480" y="600" width="80" height="40" as="geometry" />
        </mxCell>
        <mxCell id="qZ0eZMEyJfM4uQIMgLbZ-14" value="&lt;b&gt;Email&lt;/b&gt;" style="html=1;whiteSpace=wrap;connectable=1;allowArrows=1;expand=0;resizable=0;deletable=0;rotatable=0;snapToPoint=0;" parent="qZ0eZMEyJfM4uQIMgLbZ-8" vertex="1">
          <mxGeometry x="600" y="960" width="80" height="40" as="geometry" />
        </mxCell>
        <mxCell id="qZ0eZMEyJfM4uQIMgLbZ-15" value="&lt;div&gt;&lt;b style=&quot;background-color: initial;&quot;&gt;MailNotifierService&lt;/b&gt;&lt;br&gt;&lt;/div&gt;" style="html=1;whiteSpace=wrap;connectable=1;allowArrows=1;expand=0;resizable=0;deletable=0;rotatable=0;snapToPoint=0;" parent="qZ0eZMEyJfM4uQIMgLbZ-8" vertex="1">
          <mxGeometry x="200" y="960" width="160" height="40" as="geometry" />
        </mxCell>
        <mxCell id="qZ0eZMEyJfM4uQIMgLbZ-16" value="&lt;b&gt;EnsembleService&lt;/b&gt;" style="html=1;whiteSpace=wrap;connectable=1;allowArrows=1;expand=0;resizable=0;deletable=0;rotatable=0;snapToPoint=0;" parent="qZ0eZMEyJfM4uQIMgLbZ-8" vertex="1">
          <mxGeometry x="200" y="1040" width="120" height="40" as="geometry" />
        </mxCell>
        <mxCell id="qZ0eZMEyJfM4uQIMgLbZ-17" value="&lt;b&gt;Member&lt;/b&gt;" style="html=1;whiteSpace=wrap;connectable=1;allowArrows=1;expand=0;resizable=0;deletable=0;rotatable=0;snapToPoint=0;" parent="qZ0eZMEyJfM4uQIMgLbZ-8" vertex="1">
          <mxGeometry x="400" y="960" width="80" height="40" as="geometry" />
        </mxCell>
        <mxCell id="qZ0eZMEyJfM4uQIMgLbZ-18" value="&lt;b&gt;Participant&lt;/b&gt;" style="html=1;whiteSpace=wrap;connectable=1;allowArrows=1;expand=0;resizable=0;deletable=0;rotatable=0;snapToPoint=0;" parent="qZ0eZMEyJfM4uQIMgLbZ-8" vertex="1">
          <mxGeometry x="680" y="600" width="80" height="40" as="geometry" />
        </mxCell>
        <mxCell id="qZ0eZMEyJfM4uQIMgLbZ-19" value="«interface»&lt;br&gt;&lt;b&gt;MemberRepository&lt;/b&gt;" style="html=1;whiteSpace=wrap;connectable=1;allowArrows=1;expand=0;resizable=0;deletable=0;rotatable=0;snapToPoint=0;" parent="qZ0eZMEyJfM4uQIMgLbZ-8" vertex="1">
          <mxGeometry x="200" y="880" width="140" height="40" as="geometry" />
        </mxCell>
        <mxCell id="qZ0eZMEyJfM4uQIMgLbZ-20" value="" style="endArrow=block;html=1;rounded=0;strokeWidth=1;endFill=1;entryX=0;entryY=0.5;entryDx=0;entryDy=0;movable=1;cloneable=0;deletable=1;editable=1;resizable=1;rotatable=1;locked=0;connectable=1;exitX=1;exitY=0.5;exitDx=0;exitDy=0;" parent="qZ0eZMEyJfM4uQIMgLbZ-8" edge="1">
          <mxGeometry width="50" height="50" relative="1" as="geometry">
            <mxPoint x="80" y="930" as="sourcePoint" />
            <mxPoint x="160" y="930" as="targetPoint" />
          </mxGeometry>
        </mxCell>
        <mxCell id="qZ0eZMEyJfM4uQIMgLbZ-21" value="" style="endArrow=block;html=1;rounded=0;strokeWidth=1;endFill=0;exitX=0;exitY=0.5;exitDx=0;exitDy=0;entryX=1;entryY=0.5;entryDx=0;entryDy=0;movable=1;cloneable=0;deletable=1;editable=1;resizable=1;rotatable=1;locked=0;connectable=1;" parent="qZ0eZMEyJfM4uQIMgLbZ-8" edge="1">
          <mxGeometry width="50" height="50" relative="1" as="geometry">
            <mxPoint x="160" y="1010" as="sourcePoint" />
            <mxPoint x="80" y="1010" as="targetPoint" />
          </mxGeometry>
        </mxCell>
        <mxCell id="qZ0eZMEyJfM4uQIMgLbZ-22" value="" style="endArrow=block;html=1;rounded=0;strokeWidth=1;endFill=1;entryX=0;entryY=0.5;entryDx=0;entryDy=0;movable=1;cloneable=0;deletable=1;editable=1;resizable=1;rotatable=1;locked=0;connectable=1;exitX=1;exitY=0.5;exitDx=0;exitDy=0;" parent="qZ0eZMEyJfM4uQIMgLbZ-8" source="qZ0eZMEyJfM4uQIMgLbZ-13" target="qZ0eZMEyJfM4uQIMgLbZ-18" edge="1">
          <mxGeometry width="50" height="50" relative="1" as="geometry">
            <mxPoint x="700" y="840" as="sourcePoint" />
            <mxPoint x="780" y="840" as="targetPoint" />
          </mxGeometry>
        </mxCell>
      </root>
    </mxGraphModel>
  </diagram>
</mxfile>
